<?xml version="1.0" encoding="UTF-8"?>
<svg width="11px" height="28px" viewBox="0 0 11 28" version="1.1" xmlns="http://www.w3.org/2000/svg" xmlns:xlink="http://www.w3.org/1999/xlink">
    <title>Special/Arrow/bottom</title>
    <g id="Styles" stroke="none" stroke-width="1" fill="none" fill-rule="evenodd">
        <g id="Typography" transform="translate(-145.000000, -1363.000000)" fill="#ED1F24" fill-rule="nonzero">
            <g id="↓" transform="translate(135.000000, 1361.500000)">
                <path d="M15.798331,29 C16.2777005,27.9920814 16.8973111,27.0147059 17.6571627,26.0678733 C18.4170144,25.1210407 19.5312935,23.9909502 21,22.6776018 L21,22.6776018 L21,21.5016968 C18.9499305,22.4587104 17.3741307,23.4615385 16.2726008,24.510181 L16.2726008,24.510181 L16.2726008,2 L14.7273992,2 L14.7273992,24.510181 C13.7482615,23.7364253 13.0190079,23.1968326 12.5396384,22.8914027 C12.0602689,22.5859729 11.2137228,22.1329186 10,21.5322398 L10,21.5322398 L10,22.6928733 C11.4789059,24.0469457 12.6033843,25.2177602 13.3734353,26.2053167 C14.1434863,27.1928733 14.7171998,28.1244344 15.0945758,29 L15.0945758,29 L15.798331,29 Z"></path>
            </g>
        </g>
    </g>
</svg>