<?xml version="1.0" encoding="UTF-8"?>
<svg width="11px" height="28px" viewBox="0 0 11 28" version="1.1" xmlns="http://www.w3.org/2000/svg" xmlns:xlink="http://www.w3.org/1999/xlink">
    <title>Special/Arrow/top</title>
    <g id="Styles" stroke="none" stroke-width="1" fill="none" fill-rule="evenodd">
        <g id="Typography" transform="translate(-234.000000, -1363.000000)" fill="#ED1F24" fill-rule="nonzero">
            <g id="↑" transform="translate(224.000000, 1361.500000)">
                <path d="M16.2726008,29 L16.2726008,6.489819 C17.3741307,7.53846154 18.9499305,8.54128959 21,9.49830317 L21,9.49830317 L21,8.32239819 C19.5312935,7.00904977 18.4170144,5.87895928 17.6571627,4.9321267 C16.8973111,3.98529412 16.2777005,3.00791855 15.798331,2 L15.798331,2 L15.0945758,2 C14.7171998,2.87556561 14.1434863,3.8071267 13.3734353,4.79468326 C12.6033843,5.78223982 11.4789059,6.9530543 10,8.3071267 L10,8.3071267 L10,9.46776018 C11.2035234,8.86708145 12.0475197,8.41402715 12.5319889,8.10859729 C13.016458,7.80316742 13.7482615,7.26357466 14.7273992,6.489819 L14.7273992,6.489819 L14.7273992,29 L16.2726008,29 Z"></path>
            </g>
        </g>
    </g>
</svg>