<?xml version="1.0" encoding="UTF-8"?>
<svg width="28px" height="11px" viewBox="0 0 28 11" version="1.1" xmlns="http://www.w3.org/2000/svg" xmlns:xlink="http://www.w3.org/1999/xlink">
    <title>Special/Arrow/Right</title>
    <g id="Styles" stroke="none" stroke-width="1" fill="none" fill-rule="evenodd">
        <g id="Typography" transform="translate(-181.000000, -1371.000000)" fill="#000000" fill-rule="nonzero">
            <g id="→" transform="translate(181.000000, 1371.000000)">
                <path d="M21.8634198,11 C23.1381683,9.53129346 24.235045,8.41701437 25.1540498,7.65716273 C26.0730545,6.89731108 27.0217046,6.27260083 28,5.78303199 L28,5.0945758 C27.1501676,4.71719981 26.2459855,4.14348632 25.2874537,3.37343533 C24.3289218,2.60338433 23.1925181,1.47890589 21.8782425,0 L20.7517205,0 C21.334745,1.20352341 21.7744839,2.04496987 22.070937,2.52433936 C22.3673902,3.00370885 22.8911241,3.73806212 23.6421387,4.72739917 L0,4.72739917 L0,6.27260083 L23.6421387,6.27260083 C22.6243162,7.37413074 21.6509617,8.94993046 20.7220752,11 L21.8634198,11 Z"></path>
            </g>
        </g>
    </g>
</svg>
