<?xml version="1.0" encoding="UTF-8"?>
<svg width="28px" height="11px" viewBox="0 0 28 11" version="1.1" xmlns="http://www.w3.org/2000/svg" xmlns:xlink="http://www.w3.org/1999/xlink">
    <title>Special/Arrow/Left</title>
    <g id="Styles" stroke="none" stroke-width="1" fill="none" fill-rule="evenodd">
        <g id="Typography" transform="translate(-92.000000, -1371.000000)" fill="#000000" fill-rule="nonzero">
            <g id="â†" transform="translate(92.000000, 1371.000000)">
                <path d="M7.29274749,11 C6.36386095,8.94993046 5.38556555,7.37413074 4.3578613,6.27260083 L4.3578613,6.27260083 L28,6.27260083 L28,4.72739917 L4.3578613,4.72739917 C5.11875772,3.74826147 5.64496206,3.01645804 5.93647433,2.53198887 C6.22798659,2.0475197 6.66525499,1.20352341 7.24827951,0 L7.24827951,0 L6.12175754,0 C4.81736368,1.46870654 3.68590083,2.59063514 2.72736898,3.36578581 C1.76883713,4.14093649 0.859714134,4.71719981 0,5.0945758 L0,5.0945758 L0,5.78303199 C0.978295394,6.27260083 1.92694547,6.89731108 2.84595024,7.65716273 C3.764955,8.41701437 4.86183166,9.53129346 6.1365802,11 L6.1365802,11 L7.29274749,11 Z"></path>
            </g>
        </g>
    </g>
</svg>
