<?xml version="1.0" encoding="UTF-8"?>
<svg width="23px" height="24px" viewBox="0 0 23 24" version="1.1" xmlns="http://www.w3.org/2000/svg" xmlns:xlink="http://www.w3.org/1999/xlink">
    <title>Special/Avion</title>
    <g id="Styles" stroke="none" stroke-width="1" fill="none" fill-rule="evenodd">
        <g id="Typography" transform="translate(-273.000000, -1365.000000)" fill="#ED1F24" fill-rule="nonzero">
            <g id="✈" transform="translate(269.000000, 1361.500000)">
                <path d="M11.5350066,27 C12.2439454,27 12.8642668,26.7963461 13.3959709,26.3890383 C13.927675,25.9817306 14.4771026,25.2779646 15.0442536,24.2777404 L15.0442536,24.2777404 L16.2595773,24.2777404 C16.5937913,24.2777404 16.8495156,24.2261825 17.0267503,24.1230666 C17.203985,24.0199507 17.2926024,23.8704326 17.2926024,23.6745124 C17.2926024,23.4785922 17.203985,23.3290742 17.0267503,23.2259583 C16.8495156,23.1228424 16.5937913,23.0712845 16.2595773,23.0712845 L16.2595773,23.0712845 L15.9253633,23.0712845 L17.3837517,21.0450572 L18.5990753,21.0450572 C18.9332893,21.0450572 19.1864817,20.9934992 19.3586526,20.8903833 C19.5308234,20.7872674 19.6169089,20.6377494 19.6169089,20.4418292 C19.6169089,20.245909 19.5308234,20.0963909 19.3586526,19.9932751 C19.1864817,19.8901592 18.9332893,19.8386012 18.5990753,19.8386012 L18.5990753,19.8386012 L18.2496697,19.8386012 L20.5284016,16.729657 C22.8780273,16.729657 24.5440335,16.6342748 25.5264201,16.4435104 C26.5088067,16.252746 27,15.9356646 27,15.4922663 C27,15.0591796 26.4936151,14.747254 25.4808454,14.5564896 C24.4680757,14.3657252 22.8172611,14.270343 20.5284016,14.270343 L20.5284016,14.270343 L18.2496697,11.1613988 L18.5990753,11.1613988 C18.9332893,11.1613988 19.1864817,11.1098408 19.3586526,11.0067249 C19.5308234,10.9036091 19.6169089,10.754091 19.6169089,10.5581708 C19.6169089,10.3622506 19.5308234,10.2127326 19.3586526,10.1096167 C19.1864817,10.0065008 18.9332893,9.95494284 18.5990753,9.95494284 L18.5990753,9.95494284 L17.3837517,9.95494284 L15.9253633,7.92871553 L16.2595773,7.92871553 C16.5937913,7.92871553 16.8495156,7.87715759 17.0267503,7.77404169 C17.203985,7.6709258 17.2926024,7.52140776 17.2926024,7.32548756 C17.2926024,7.12956736 17.203985,6.98004932 17.0267503,6.87693342 C16.8495156,6.77381753 16.5937913,6.72225958 16.2595773,6.72225958 L16.2595773,6.72225958 L15.0442536,6.72225958 C14.4771026,5.72203542 13.927675,5.01826945 13.3959709,4.61096167 C12.8642668,4.20365389 12.2439454,4 11.5350066,4 L11.5350066,4 L11.2159841,4 C12.3097754,6.34073078 13.1756935,8.36695808 13.8137384,10.0786819 C14.4517834,11.7904057 14.7708058,12.9092132 14.7708058,13.4351042 C14.7708058,14.0125532 13.7732277,14.3579915 11.7780713,14.471419 C10.3298107,14.5539117 9.10435931,14.6518718 8.10171731,14.7652993 C7.90929106,14.6312486 7.6206517,14.3090114 7.23579921,13.7985878 C6.85094672,13.2881641 6.35468956,12.5689307 5.74702774,11.6408877 C5.72677235,11.6305761 5.69638926,11.6202645 5.65587847,11.6099529 C5.02796125,11.4759023 4.47600176,11.3779422 4,11.3160726 C4.28357552,12.0069491 4.52664025,12.6746245 4.72919419,13.3190989 C4.93174813,13.9635732 5.09379128,14.5848464 5.21532365,15.1829186 C5.0228974,15.224165 4.84819463,15.2705671 4.69121532,15.3221251 C4.53423602,15.373683 4.38991634,15.4303968 4.25825627,15.4922663 C4.43042712,15.5850706 4.59753413,15.6572517 4.75957728,15.7088097 C4.92162043,15.7603676 5.07353589,15.7964582 5.21532365,15.8170814 C5.10391898,16.3945304 4.9494716,17.0003362 4.75198151,17.634499 C4.55449141,18.2686617 4.30889476,18.9518045 4.01519155,19.6839274 C4.31902246,19.642681 4.6152576,19.5962789 4.90389696,19.5447209 C5.19253633,19.493163 5.47357992,19.4312934 5.74702774,19.3591123 C6.35468956,18.4413809 6.85094672,17.7273033 7.23579921,17.2168796 C7.6206517,16.706456 7.91435491,16.3739072 8.11690885,16.2192334 C9.18031704,16.3635956 10.4614707,16.4770231 11.9603699,16.5595158 C13.8339938,16.6626317 14.7708058,16.9977584 14.7708058,17.5648958 C14.7708058,18.1010984 14.4492514,19.2353732 13.8061427,20.9677202 C13.1630339,22.7000672 12.2996477,24.7108272 11.2159841,27 L11.2159841,27 L11.5350066,27 Z"></path>
            </g>
        </g>
    </g>
</svg>