<?xml version="1.0" encoding="UTF-8"?>
<svg width="24px" height="24px" viewBox="0 0 24 24" version="1.1" xmlns="http://www.w3.org/2000/svg" xmlns:xlink="http://www.w3.org/1999/xlink">
    <title>Special/Coeur/Outline</title>
    <g id="Styles" stroke="none" stroke-width="1" fill="none" fill-rule="evenodd">
        <g id="Typography" transform="translate(-318.000000, -1365.000000)" fill="#ED1F24" fill-rule="nonzero">
            <g id="♡" transform="translate(315.000000, 1361.500000)">
                <path d="M15.6916427,26.7368421 C16.037464,25.6408097 16.556196,24.6555466 17.2478386,23.7810526 C17.9394813,22.9065587 18.7118156,22.0903644 19.5648415,21.3324696 C20.4178674,20.5745749 21.2766571,19.8225101 22.1412104,19.0762753 C23.0057637,18.3300405 23.8069164,17.542996 24.5446686,16.7151417 C25.2824207,15.8872874 25.8760807,14.9719838 26.3256484,13.9692308 C26.7752161,12.9664777 27,11.8238057 27,10.5412146 C27,9.09538462 26.7118156,7.888583 26.1354467,6.92080972 C25.5590778,5.95303644 24.8040346,5.2242915 23.870317,4.7345749 C22.9365994,4.2448583 21.9164265,4 20.8097983,4 C19.610951,4 18.4870317,4.31481781 17.4380403,4.94445344 C16.389049,5.57408907 15.5763689,6.64680162 15,8.16259109 C14.4236311,6.64680162 13.610951,5.57408907 12.5619597,4.94445344 C11.5129683,4.31481781 10.389049,4 9.19020173,4 C8.08357349,4 7.06340058,4.2448583 6.129683,4.7345749 C5.19596542,5.2242915 4.44092219,5.95303644 3.86455331,6.92080972 C3.28818444,7.888583 3,9.09538462 3,10.5412146 C3,11.8238057 3.22478386,12.9664777 3.67435159,13.9692308 C4.12391931,14.9719838 4.71757925,15.8872874 5.45533141,16.7151417 C6.19308357,17.542996 6.99423631,18.3300405 7.85878963,19.0762753 C8.72334294,19.8225101 9.58213256,20.5745749 10.4351585,21.3324696 C11.2881844,22.0903644 12.0605187,22.9065587 12.7521614,23.7810526 C13.443804,24.6555466 13.962536,25.6408097 14.3083573,26.7368421 L14.3083573,26.7368421 L15.6916427,26.7368421 Z M15.3157895,22.9473684 C14.6451356,21.8667269 13.9051037,20.9387847 13.0956938,20.1635419 C12.2862839,19.3882991 11.476874,18.6835329 10.6674641,18.0492433 C9.85805423,17.4149537 9.11224083,16.7747911 8.43002392,16.1287554 C7.74780702,15.4827197 7.19856459,14.7485882 6.78229665,13.926361 C6.36602871,13.1041337 6.15789474,12.117461 6.15789474,10.9663429 C6.15789474,9.50982607 6.49900319,8.40569234 7.1812201,7.65394172 C7.863437,6.9021911 8.73644338,6.52631579 9.80023923,6.52631579 C10.9565391,6.52631579 11.9336124,7.01965213 12.7314593,8.00632482 C13.5293062,8.99299752 14.1941786,10.3203072 14.7260766,11.9882539 L14.7260766,11.9882539 L15.9401914,11.9882539 C16.4720893,10.3203072 17.1311802,8.99299752 17.9174641,8.00632482 C18.703748,7.01965213 19.6750399,6.52631579 20.8313397,6.52631579 C21.8951356,6.52631579 22.7681419,6.9021911 23.4503589,7.65394172 C24.1325758,8.40569234 24.4736842,9.50982607 24.4736842,10.9663429 C24.4736842,12.1409532 24.2655502,13.133499 23.8492823,13.9439801 C23.4330144,14.7544613 22.8837719,15.4827197 22.201555,16.1287554 C21.5193381,16.7747911 20.7735247,17.4149537 19.9641148,18.0492433 C19.1547049,18.6835329 18.3452951,19.3882991 17.5358852,20.1635419 C16.7264753,20.9387847 15.9864434,21.8667269 15.3157895,22.9473684 Z"></path>
            </g>
        </g>
    </g>
</svg>