<?xml version="1.0" encoding="UTF-8"?>
<svg width="30px" height="23px" viewBox="0 0 30 23" version="1.1" xmlns="http://www.w3.org/2000/svg" xmlns:xlink="http://www.w3.org/1999/xlink">
    <title>Special/Ecrire</title>
    <g id="Styles" stroke="none" stroke-width="1" fill="none" fill-rule="evenodd">
        <g id="Typography" transform="translate(-360.000000, -1365.000000)" fill="#ED1F24" fill-rule="nonzero">
            <g id="âœ" transform="translate(360.000000, 1361.500000)">
                <path d="M0.111662531,25.7183623 C0.682382134,25.5694789 1.27791563,25.3957816 1.89826303,25.1972705 C2.51861042,24.9987593 3.19478908,24.7692308 3.92679901,24.5086849 L3.92679901,24.5086849 L5.99255583,22.219603 C7.08436725,22.5669975 8.04280397,22.8244417 8.867866,22.9919355 C9.69292804,23.1594293 10.3970223,23.2431762 10.9801489,23.2431762 C11.4640199,23.2431762 12.2611663,23.1284119 13.3715881,22.8988834 C14.4820099,22.6693548 15.3473945,22.5545906 15.9677419,22.5545906 C16.3771712,22.5545906 17.0006203,22.6383375 17.8380893,22.8058313 C18.6755583,22.9733251 19.2990074,23.057072 19.7084367,23.057072 C20.0310174,23.057072 20.4683623,23.0074442 21.0204715,22.9081886 C21.5725806,22.808933 22.3014888,22.6414392 23.207196,22.4057072 L23.207196,22.4057072 L23.5980149,24.3598015 L28.8647643,24.3225806 C29.2369727,22.9826303 29.5192308,21.7419355 29.7115385,20.6004963 C29.9038462,19.4590571 30,18.41067 30,17.455335 C30,16.6861042 29.9348635,15.8672457 29.8045906,14.9987593 C29.6743176,14.130273 29.4851117,13.2059553 29.2369727,12.2258065 L29.2369727,12.2258065 L23.9702233,11.853598 L23.4677419,12.6166253 C22.6488834,12.5173697 21.7524814,12.2506203 20.778536,11.8163772 C19.8045906,11.382134 18.7096774,10.7555831 17.4937965,9.93672457 C18.8461538,8.5719603 19.7177419,7.61972705 20.1085608,7.08002481 C20.4993797,6.54032258 20.6947891,6.09677419 20.6947891,5.74937965 C20.6947891,5.33995037 20.530397,4.94602978 20.2016129,4.56761787 C19.8728288,4.18920596 19.528536,4 19.1687345,4 C18.8337469,4 18.3715881,4.26054591 17.7822581,4.78163772 C17.192928,5.30272953 16.2344913,6.33870968 14.9069479,7.88957816 L14.9069479,7.88957816 L12.6923077,6.43796526 C11.6377171,6.82258065 10.483871,7.47084367 9.23076923,8.38275434 C7.97766749,9.29466501 6.56327543,10.5136476 4.98759305,12.0397022 C4.60297767,13.1935484 4.17493797,14.4218362 3.70347395,15.7245658 C3.23200993,17.0272953 2.64888337,18.5843672 1.95409429,20.3957816 L1.95409429,20.3957816 L2.43796526,20.8424318 C2.31389578,21.028536 2.16501241,21.2549628 1.99131514,21.5217122 C1.81761787,21.7884615 1.71215881,21.9466501 1.67493797,21.9962779 C1.40198511,22.5421836 1.132134,23.1004963 0.865384615,23.6712159 C0.598635236,24.2419355 0.310173697,24.8870968 0,25.6066998 L0,25.6066998 L0.111662531,25.7183623 Z M4.57816377,20.2282878 L4.24317618,20.2282878 C4.46650124,19.8808933 4.65260546,19.5272953 4.80148883,19.1674938 C4.95037221,18.8076923 5.06823821,18.4540943 5.15508685,18.1066998 L5.15508685,18.1066998 L5.19230769,17.9019851 C5.1674938,17.5794045 5.07133995,17.3064516 4.90384615,17.0831266 C4.73635236,16.8598015 4.50372208,16.6923077 4.20595533,16.5806452 C4.39205955,15.9727047 4.6060794,15.3616625 4.84801489,14.7475186 C5.08995037,14.1333747 5.35359801,13.5099256 5.63895782,12.8771712 C6.99131514,11.3759305 8.36538462,10.1042184 9.76116625,9.06203474 C11.1569479,8.01985112 12.0595533,7.49875931 12.4689826,7.49875931 C12.6054591,7.49875931 13.0521092,7.80272953 13.808933,8.41066998 C13.9330025,8.50992556 14.0260546,8.58436725 14.0880893,8.63399504 C13.4801489,9.31637717 12.6364764,10.2220844 11.557072,11.3511166 C9.55955335,13.4727047 8.31265509,14.8560794 7.81637717,15.5012407 C7.382134,16.0843672 6.98511166,16.8411911 6.62531017,17.7717122 C6.55086849,17.9702233 6.48883375,18.1191067 6.43920596,18.2183623 C6.17866005,18.7890819 5.86848635,19.2667494 5.50868486,19.6513648 C5.14888337,20.0359801 4.83870968,20.2282878 4.57816377,20.2282878 L4.57816377,20.2282878 Z M11.2406948,22.4057072 C10.9057072,22.4057072 10.5645161,22.3746898 10.2171216,22.3126551 C9.86972705,22.2506203 9.50372208,22.1575682 9.1191067,22.0334988 C9.31761787,21.8473945 9.47270471,21.6395782 9.58436725,21.4100496 C9.69602978,21.1805211 9.75186104,20.9540943 9.75186104,20.7307692 C9.75186104,20.32134 9.67431762,19.9925558 9.51923077,19.7444169 C9.36414392,19.4962779 9.10049628,19.2915633 8.72828784,19.130273 C8.86476427,19.5397022 8.96401985,19.8808933 9.02605459,20.1538462 C9.08808933,20.426799 9.1191067,20.6563275 9.1191067,20.8424318 C9.1191067,21.0409429 9.07568238,21.2301489 8.98883375,21.4100496 C8.90198511,21.5899504 8.76550868,21.7605459 8.57940447,21.9218362 C7.67369727,21.7729529 7.05334988,21.5961538 6.71836228,21.3914392 C6.38337469,21.1867246 6.21588089,20.9044665 6.21588089,20.544665 C6.21588089,19.8995037 6.76799007,19.3442928 7.87220844,18.8790323 C8.9764268,18.4137717 10.3908189,18.1811414 12.1153846,18.1811414 C12.5124069,18.1811414 12.983871,18.1873449 13.5297767,18.1997519 C14.0756824,18.2121588 14.4230769,18.2183623 14.5719603,18.2183623 L14.8511166,18.2183623 C15.1736973,18.0322581 15.4435484,17.8058313 15.66067,17.5390819 C15.8777916,17.2723325 16.0483871,16.9652605 16.1724566,16.617866 C15.5521092,16.8908189 14.9379653,17.0986352 14.3300248,17.2413151 C13.7220844,17.383995 13.101737,17.4677419 12.4689826,17.4925558 C13.1885856,16.9590571 13.7096774,16.369727 14.0322581,15.7245658 C14.3548387,15.0794045 14.516129,14.3101737 14.516129,13.4168734 L14.516129,13.4168734 L14.516129,13.1004963 L16.7307692,10.6997519 C17.4751861,11.1836228 18.2227047,11.6333747 18.9733251,12.0490074 C19.7239454,12.4646402 20.483871,12.8523573 21.2531017,13.2121588 C21.674938,13.3114144 22.0998759,13.3889578 22.5279156,13.4447891 C22.9559553,13.5006203 23.3870968,13.5409429 23.82134,13.5657568 C24.044665,14.3349876 24.2090571,15.0483871 24.3145161,15.7059553 C24.4199752,16.3635236 24.4727047,16.971464 24.4727047,17.5297767 C24.4727047,17.939206 24.4354839,18.4416873 24.3610422,19.0372208 C24.2866005,19.6327543 24.1563275,20.3895782 23.9702233,21.3076923 C22.9776675,21.5558313 22.1526055,21.7388337 21.4950372,21.8566998 C20.837469,21.9745658 20.3039702,22.0334988 19.8945409,22.0334988 C19.3858561,22.0334988 18.7034739,21.9373449 17.8473945,21.7450372 C16.9913151,21.5527295 16.3895782,21.4565757 16.0421836,21.4565757 C15.5707196,21.4565757 14.8045906,21.6147643 13.7437965,21.9311414 C12.6830025,22.2475186 11.8486352,22.4057072 11.2406948,22.4057072 Z M24.2493797,23.4292804 C24.6091811,22.1265509 24.8759305,20.9944169 25.0496278,20.0328784 C25.2233251,19.07134 25.3101737,18.2245658 25.3101737,17.4925558 C25.3101737,16.9590571 25.2698511,16.3418114 25.189206,15.6408189 C25.1085608,14.9398263 24.9813896,14.1240695 24.8076923,13.1935484 L24.8076923,13.1935484 L27.8598015,13.2307692 C28.1327543,14.0372208 28.3343672,14.8498759 28.4646402,15.6687345 C28.5949132,16.4875931 28.6600496,17.3002481 28.6600496,18.1066998 C28.6600496,18.9503722 28.5949132,19.7971464 28.4646402,20.6470223 C28.3343672,21.4968983 28.1327543,22.3622829 27.8598015,23.2431762 L27.8598015,23.2431762 L24.2493797,23.4292804 Z M10.9801489,17.4181141 L10.7940447,17.4181141 L10.6079404,17.3808933 C11.1414392,16.7853598 11.6656328,16.1960298 12.1805211,15.6129032 C12.6954094,15.0297767 13.1947891,14.4466501 13.67866,13.8635236 C13.6290323,14.9181141 13.3498759,15.7741935 12.8411911,16.4317618 C12.3325062,17.08933 11.7121588,17.4181141 10.9801489,17.4181141 L10.9801489,17.4181141 Z M3.12655087,20.2655087 L3.08933002,20.2655087 L2.58684864,20.2282878 L4.03846154,16.9156328 C4.2369727,17.0769231 4.37655087,17.2444169 4.45719603,17.4181141 C4.53784119,17.5918114 4.57816377,17.808933 4.57816377,18.0694789 C4.57816377,18.7022333 4.43858561,19.2264268 4.15942928,19.6420596 C3.88027295,20.0576923 3.53598015,20.2655087 3.12655087,20.2655087 L3.12655087,20.2655087 Z M1.48883375,24.8064516 L1.15384615,24.3598015 C1.24069479,24.0744417 1.39578164,23.751861 1.6191067,23.3920596 C1.84243176,23.0322581 2.14019851,22.6166253 2.51240695,22.1451613 C2.89702233,22.442928 3.18858561,22.7251861 3.38709677,22.9919355 C3.58560794,23.2586849 3.70347395,23.516129 3.74069479,23.764268 C3.39330025,23.9751861 3.03039702,24.1674938 2.65198511,24.3411911 C2.2735732,24.5148883 1.88585608,24.6699752 1.48883375,24.8064516 L1.48883375,24.8064516 Z"></path>
            </g>
        </g>
    </g>
</svg>