<?xml version="1.0" encoding="UTF-8"?>
<svg width="27px" height="19px" viewBox="0 0 27 19" version="1.1" xmlns="http://www.w3.org/2000/svg" xmlns:xlink="http://www.w3.org/1999/xlink">
    <title>Special/Nuage</title>
    <g id="Styles" stroke="none" stroke-width="1" fill="none" fill-rule="evenodd">
        <g id="Typography" transform="translate(-408.000000, -1367.000000)" fill="#ED1F24" fill-rule="nonzero">
            <g id="â˜" transform="translate(406.000000, 1361.500000)">
                <path d="M18.1428571,23.7428571 C20.5142857,23.7428571 22.4571429,22.3142857 23.0285714,20.1142857 C23.4285714,20.1428571 23.6571429,20.1714286 23.8285714,20.1714286 C24.4857143,20.1714286 25.3714286,19.9714286 26.0285714,19.6571429 C27.7428571,18.8571429 28.5714286,17.4571429 28.5714286,15.4 C28.5714286,13.6285714 27.9714286,12.4 26.7428571,11.5714286 C26,11.0571429 25.3714286,10.8285714 24.3714286,10.7714286 C24.5142857,10.4 24.5428571,10.2285714 24.5428571,9.94285714 C24.5428571,8.05714286 22.6571429,6.51428571 20.3428571,6.51428571 C18.6285714,6.51428571 17.4571429,7.25714286 16.8285714,8.71428571 C16.2,6.82857143 14.5428571,5.71428571 12.4,5.71428571 C9.42857143,5.71428571 6.85714286,8.08571429 6.85714286,10.8 C6.85714286,11.1428571 6.88571429,11.4 7,12.0857143 C6.6,11.9714286 6.42857143,11.9428571 6.08571429,11.9428571 C3.94285714,11.9428571 2.14285714,13.9428571 2.14285714,16.2857143 C2.14285714,18.6285714 3.91428571,20.6 6.02857143,20.6 C6.25714286,20.6 6.45714286,20.5714286 6.88571429,20.4857143 C6.94285714,21.2857143 7.05714286,21.6571429 7.4,22.1428571 C8.02857143,23.1428571 9.22857143,23.7428571 10.6,23.7428571 C12.1142857,23.7428571 13.2571429,23.0857143 14.0571429,21.7428571 C15.0285714,23.0857143 16.3714286,23.7428571 18.1428571,23.7428571 Z"></path>
            </g>
        </g>
    </g>
</svg>