<?xml version="1.0" encoding="UTF-8"?>
<svg width="19px" height="19px" viewBox="0 0 19 19" version="1.1" xmlns="http://www.w3.org/2000/svg" xmlns:xlink="http://www.w3.org/1999/xlink">
    <title>Panier</title>
    <g id="Styles" stroke="none" stroke-width="1" fill="none" fill-rule="evenodd">
        <g id="Typography" transform="translate(-736.000000, -1367.000000)" fill="#ED1F24">
            <g id="Fill-70" transform="translate(736.500000, 1367.500000)">
                <path d="M5.4962406,15 C4.66917293,15 4,15.675375 4,16.5 C4,17.325375 4.66917293,18 5.4962406,18 C6.32330827,18 7,17.325375 7,16.5 C7,15.675375 6.32330827,15 5.4962406,15 L5.4962406,15 Z M0,0 L0,1.73333333 L1.8,1.73333333 L5.04,8.31176667 L3.825,10.4351 C3.681,10.6773333 3.6,10.9633333 3.6,11.2666667 C3.6,12.2204333 4.41,13 5.4,13 L16.2,13 L16.2,11.2666667 L5.778,11.2666667 C5.652,11.2666667 5.553,11.1713333 5.553,11.05 L5.58,10.946 L6.39,9.53333333 L13.095,9.53333333 C13.77,9.53333333 14.364,9.17843333 14.67,8.6411 L17.892,3.01643333 C17.964,2.8951 18,2.74733333 18,2.6 C18,2.12333333 17.595,1.73333333 17.1,1.73333333 L3.789,1.73333333 L2.943,0 L0,0 L0,0 Z M14.4962406,15 C13.6691729,15 13,15.675375 13,16.5 C13,17.325375 13.6691729,18 14.4962406,18 C15.3233083,18 16,17.325375 16,16.5 C16,15.675375 15.3233083,15 14.4962406,15 L14.4962406,15 Z"></path>
            </g>
        </g>
    </g>
</svg>