<?xml version="1.0" encoding="UTF-8"?>
<svg width="16px" height="17px" viewBox="0 0 16 17" version="1.1" xmlns="http://www.w3.org/2000/svg" xmlns:xlink="http://www.w3.org/1999/xlink">
    <title>Icon/Search</title>
    <g id="Styles" stroke="none" stroke-width="1" fill="none" fill-rule="evenodd">
        <g id="Typography" transform="translate(-861.000000, -1368.000000)" fill="#000000" fill-rule="nonzero">
            <g id="Search" transform="translate(857.000000, 1364.500000)">
                <path d="M9.83595585,13.7265931 C11.9846955,13.7265931 13.7265931,11.9846955 13.7265931,9.83595585 C13.7265931,7.68721624 11.9846955,5.94531862 9.83595585,5.94531862 C7.68721624,5.94531862 5.94531862,7.68721624 5.94531862,9.83595585 C5.94531862,11.9846955 7.68721624,13.7265931 9.83595585,13.7265931 Z M15.6719117,14.2963637 L20,18.624452 L18.624452,20 L14.2963637,15.6719117 L15.6719117,14.2963637 Z M9.83595585,4 C13.0590653,4 15.6719117,6.61284643 15.6719117,9.83595585 C15.6719117,13.0590653 13.0590653,15.6719117 9.83595585,15.6719117 C6.61284643,15.6719117 4,13.0590653 4,9.83595585 C4,6.61284643 6.61284643,4 9.83595585,4 Z"></path>
            </g>
        </g>
    </g>
</svg>