<?xml version="1.0" encoding="UTF-8"?>
<svg width="24px" height="25px" viewBox="0 0 24 25" version="1.1" xmlns="http://www.w3.org/2000/svg" xmlns:xlink="http://www.w3.org/1999/xlink">
    <title>Special/Soleil</title>
    <g id="Styles" stroke="none" stroke-width="1" fill="none" fill-rule="evenodd">
        <g id="Typography" transform="translate(-327.000000, -1492.000000)" fill="#ED1F24" fill-rule="nonzero">
            <g id="☼" transform="translate(327.000000, 1492.500000)">
                <path d="M12.6171875,23.90625 L12.6171875,19.6679688 C13.4895833,19.5638021 14.2382812,19.3880208 14.8632812,19.140625 C15.4882812,18.8932292 16.1979167,18.4765625 16.9921875,17.890625 L16.9921875,17.890625 L20.5664062,21.4453125 L21.5039062,20.6054688 L17.9296875,16.9140625 C18.9453125,15.5989583 19.5377604,14.1601562 19.7070312,12.5976562 L19.7070312,12.5976562 L23.9257812,12.5976562 L23.9257812,11.40625 L19.7070312,11.40625 C19.6549479,9.921875 19.0559896,8.42447917 17.9101562,6.9140625 L17.9101562,6.9140625 L21.5039062,3.3203125 L20.625,2.44140625 L16.9921875,5.99609375 C16.25,5.42317708 15.5436198,5.00325521 14.8730469,4.73632812 C14.202474,4.46940104 13.4505208,4.30338542 12.6171875,4.23828125 L12.6171875,4.23828125 L12.6171875,0 L11.328125,0 L11.328125,4.23828125 C9.90885417,4.38151042 8.45052083,4.9609375 6.953125,5.9765625 L6.953125,5.9765625 L3.26171875,2.421875 L2.4609375,3.37890625 L6.015625,6.97265625 C4.97395833,8.24869792 4.375,9.70703125 4.21875,11.3476562 L4.21875,11.3476562 L0,11.3476562 L0,12.5390625 L4.21875,12.5390625 C4.40104167,14.1796875 5.00651042,15.6510417 6.03515625,16.953125 L6.03515625,16.953125 L2.4609375,20.5664062 L3.3203125,21.4257812 L7.01171875,17.9296875 C8.24869792,18.8541667 9.6875,19.4335938 11.328125,19.6679688 L11.328125,19.6679688 L11.328125,23.90625 L12.6171875,23.90625 Z M11.9335938,18.4375 C10.1367188,18.4375 8.60677083,17.8059896 7.34375,16.5429688 C6.08072917,15.2799479 5.44921875,13.75 5.44921875,11.953125 C5.44921875,10.1692708 6.08072917,8.63932292 7.34375,7.36328125 C8.60677083,6.08723958 10.1367188,5.44921875 11.9335938,5.44921875 C13.7304688,5.44921875 15.2636719,6.08723958 16.5332031,7.36328125 C17.8027344,8.63932292 18.4375,10.1692708 18.4375,11.953125 C18.4375,13.75 17.8027344,15.2799479 16.5332031,16.5429688 C15.2636719,17.8059896 13.7304688,18.4375 11.9335938,18.4375 Z"></path>
            </g>
        </g>
    </g>
</svg>